<svg width="143" height="131" viewBox="0 0 143 131" fill="none" xmlns="http://www.w3.org/2000/svg">
<g clip-path="url(#clip0_158_1711)">
<path d="M154.817 102.459C155.058 101.11 155.3 99.7609 155.784 97.063C156.025 95.714 156.025 95.714 156.267 94.3651C156.509 93.0161 156.509 93.0161 156.75 91.6671L156.992 90.3182L157.234 88.9692C157.475 87.6202 157.475 87.6202 157.717 86.2713C157.717 86.2713 157.717 86.2713 157.475 87.6202L157.717 86.2713L157.959 84.9223L158.201 83.5734L158.442 82.2244C158.442 82.2244 158.442 82.2244 158.201 83.5734C158.201 83.5734 158.201 83.5734 157.959 84.9223L158.201 83.5734L158.442 82.2244L158.684 80.8754C158.926 79.5265 157.795 77.9316 158.037 76.5827C155.776 73.3931 155.129 69.1003 153.11 64.5617C152.463 60.269 150.202 57.0794 148.183 52.5408C148.183 52.5408 148.183 52.5408 148.425 51.1918L147.295 49.597C147.295 49.597 147.536 48.248 146.164 48.0022C146.164 48.0022 146.406 46.6532 145.034 46.4074C145.276 45.0584 143.904 44.8126 143.904 44.8126C143.904 44.8126 143.904 44.8126 142.773 43.2178C142.773 43.2178 142.773 43.2178 141.643 41.6229L140.512 40.0281C140.512 40.0281 140.512 40.0281 139.382 38.4333C139.382 38.4333 139.382 38.4333 138.252 36.8385C138.252 36.8385 138.252 36.8385 137.121 35.2437C137.121 35.2437 135.749 34.9978 135.991 33.6489C135.991 33.6489 134.619 33.403 134.861 32.0541C134.861 32.0541 133.488 31.8082 133.73 30.4593C135.991 33.6489 134.861 32.0541 134.861 32.0541C133.488 31.8082 132.358 30.2134 132.358 30.2134C132.358 30.2134 130.986 29.9676 131.228 28.6186C131.228 28.6186 129.856 28.3728 130.097 27.0238C130.097 27.0238 131.228 28.6186 132.6 28.8645L133.73 30.4593C132.358 30.2134 132.6 28.8645 131.228 28.6186C131.228 28.6186 129.856 28.3728 130.097 27.0238C130.097 27.0238 128.725 26.7779 128.967 25.429C128.967 25.429 128.967 25.429 130.339 25.6748C124.851 24.6914 120.976 22.6049 115.729 20.2726C114.357 20.0267 112.985 19.7809 112.985 19.7809C109.352 16.3454 105.236 15.6079 102.734 13.7672C98.6174 13.0296 94.5011 12.2921 90.3849 11.5546L89.0128 11.3087L90.3849 11.5546L91.757 11.8004C93.1291 12.0463 94.5011 12.2921 94.5011 12.2921C95.8732 12.538 98.6174 13.0297 99.9895 13.2755L98.6174 13.0297L97.2453 12.7838L95.8732 12.538L94.5011 12.2921L91.757 11.8004C93.1291 12.0463 94.5011 12.2921 95.8732 12.538L99.9895 13.2755C101.362 13.5213 101.362 13.5213 102.734 13.7672L104.106 14.013L105.478 14.2589C106.85 14.5047 106.85 14.5047 108.222 14.7506L110.966 15.2423L112.338 15.4881C110.966 15.2423 110.966 15.2423 109.594 14.9964L108.222 14.7506C105.478 14.2589 103.864 15.362 105.236 15.6079C105.236 15.6079 106.608 15.8537 107.739 17.4485C107.739 17.4485 107.739 17.4485 109.111 17.6944L110.483 17.9402C111.855 18.1861 111.855 18.1861 113.227 18.4319L114.599 18.6778L113.227 18.4319C111.855 18.1861 110.483 17.9402 110.483 17.9402C109.111 17.6944 109.111 17.6944 107.739 17.4485L106.367 17.2027C106.367 17.2027 106.367 17.2027 104.994 16.9568C103.622 16.711 104.994 16.9568 104.753 18.3058L106.125 18.5516C106.125 18.5516 107.497 18.7975 108.869 19.0433C110.241 19.2892 110.241 19.2892 111.613 19.535C112.985 19.7809 114.357 20.0267 114.357 20.0267C113.149 26.7715 117.023 28.858 120.898 30.9446C122.27 31.1904 122.028 32.5394 123.4 32.7852C123.4 32.7852 123.4 32.7852 122.028 32.5394C119.768 29.3497 117.265 27.5091 114.521 27.0174C114.521 27.0174 114.521 27.0174 113.149 26.7715C113.149 26.7715 113.149 26.7715 111.777 26.5257C111.777 26.5257 111.777 26.5257 113.149 26.7715C113.149 26.7715 113.149 26.7715 114.521 27.0174C115.893 27.2632 117.023 28.858 118.395 29.1039C123.642 31.4363 127.275 34.8717 129.777 36.7124C129.777 36.7124 128.405 36.4665 128.647 35.1176C128.647 35.1176 127.275 34.8717 127.517 33.5228L126.145 33.2769L124.772 33.0311C124.772 33.0311 123.4 32.7852 123.642 31.4363C122.27 31.1904 122.27 31.1904 122.512 29.8414L121.14 29.5956C119.526 30.6987 119.526 30.6987 119.526 30.6987C119.526 30.6987 119.526 30.6987 118.154 30.4529C118.154 30.4529 118.154 30.4529 116.782 30.207L115.41 29.9612C115.41 29.9612 115.41 29.9612 114.037 29.7153L112.665 29.4695L111.293 29.2236L109.921 28.9778C109.921 28.9778 109.921 28.9778 108.549 28.7319L107.177 28.4861L105.805 28.2402C105.805 28.2402 104.433 27.9944 103.061 27.7485C103.061 27.7485 103.061 27.7485 104.433 27.9944C104.433 27.9944 104.433 27.9944 103.061 27.7485C103.061 27.7485 103.061 27.7485 100.558 25.9079L99.1862 25.662C99.1862 25.662 99.1862 25.662 97.8141 25.4162C97.8141 25.4162 97.8141 25.4162 99.1862 25.662C99.1862 25.662 99.1862 25.662 100.558 25.9079C100.558 25.9079 100.558 25.9079 101.689 27.5027C101.689 27.5027 101.689 27.5027 103.061 27.7485C103.061 27.7485 104.433 27.9944 105.805 28.2402C105.805 28.2402 105.805 28.2402 107.177 28.4861C107.177 28.4861 107.177 28.4861 108.549 28.7319C108.549 28.7319 109.921 28.9778 111.293 29.2236C111.293 29.2236 111.293 29.2236 112.665 29.4695C114.037 29.7153 114.037 29.7153 113.796 31.0643L112.424 30.8184C111.052 30.5726 111.052 30.5726 112.424 30.8184C111.052 30.5726 111.052 30.5726 110.81 31.9215L109.438 31.6757C108.066 31.4298 108.066 31.4298 106.694 31.184C106.452 32.533 105.08 32.2871 105.08 32.2871L103.708 32.0413C99.8332 29.9548 95.9586 27.8683 93.2145 27.3766L94.5866 27.6224C94.5866 27.6224 94.5866 27.6224 95.9587 27.8683C95.9587 27.8683 95.9587 27.8683 97.3307 28.1141L98.7028 28.3599L100.075 28.6058C100.075 28.6058 100.075 28.6058 101.447 28.8516C101.447 28.8516 101.447 28.8516 102.819 29.0975L104.191 29.3433L105.563 29.5892L106.935 29.835C102.336 31.7954 98.2194 31.0579 95.7169 29.2172C94.3449 28.9714 94.3449 28.9714 92.9728 28.7255C91.6007 28.4797 91.6007 28.4797 90.2286 28.2338C88.8565 27.988 88.8565 27.988 87.4844 27.7421C86.1123 27.4963 86.1123 27.4963 84.7402 27.2504L86.354 26.1473C83.6099 25.6556 79.2519 26.267 76.266 27.1243L74.8939 26.8785L73.5218 26.6326C73.5218 26.6326 73.5218 26.6326 72.1497 26.3868C72.1497 26.3868 72.1497 26.3868 70.7777 26.1409C72.1497 26.3868 73.7635 25.2836 75.1356 25.5295C77.8798 26.0212 80.624 26.5129 84.9819 25.9015L86.354 26.1473C87.7261 26.3932 87.7261 26.3932 89.0982 26.639C90.4703 26.8849 90.4703 26.8849 91.8424 27.1307L90.4703 26.8849L89.0982 26.639L90.4703 26.8849C90.4703 26.8849 90.4703 26.8849 92.0841 25.7817C90.712 25.5359 92.0841 25.7817 94.8283 26.2734L96.2004 26.5193C96.2004 26.5193 96.2003 26.5193 94.8283 26.2734L93.4562 26.0276L92.0841 25.7817C90.712 25.5359 90.712 25.5359 89.3399 25.29L86.5957 24.7983C85.2236 24.5525 85.2237 24.5525 83.8516 24.3067L82.4795 24.0608L81.1074 23.815L79.7353 23.5691L78.3632 23.3233C78.3632 23.3233 78.3632 23.3233 79.7353 23.5691C81.1074 23.815 85.2237 24.5525 89.5816 23.9411L89.8233 22.5921L90.065 21.2432C85.7071 21.8546 81.3491 22.466 76.9911 23.0774C76.9911 23.0774 78.3632 23.3233 76.9911 23.0774L75.619 22.8316C71.2611 23.443 66.9031 24.0544 62.3034 26.0148L60.9313 25.7689L62.5451 24.6658L64.1589 23.5627C64.1589 23.5627 65.531 23.8086 65.7727 22.4596L67.3865 21.3565L68.7586 21.6023C70.1307 21.8482 71.7445 20.7451 73.1166 20.9909C79.0883 19.2764 84.8184 18.9108 90.3067 19.8942L91.6788 20.14C91.6788 20.14 91.6788 20.14 93.0509 20.3859L94.423 20.6317C95.7951 20.8776 95.7951 20.8776 95.7951 20.8776L94.423 20.6317L93.0509 20.3859C93.0509 20.3859 91.6788 20.14 90.3067 19.8942L88.9346 19.6483C88.9346 19.6483 88.9346 19.6483 87.5626 19.4025L86.1905 19.1566L84.8184 18.9108L83.4463 18.665C76.5859 17.4357 73.6 18.293 70.6141 19.1502C70.6141 19.1502 69.242 18.9044 69.0003 20.2534C69.0003 20.2534 67.6282 20.0075 67.3865 21.3565C66.2561 19.7617 66.2561 19.7617 64.6423 20.8648L63.2702 20.6189C63.2702 20.6189 63.2702 20.6189 61.8982 20.3731L60.5261 20.1272C59.154 19.8814 59.154 19.8814 57.5402 20.9845C56.1681 20.7387 55.9264 22.0876 54.5543 21.8418C53.1822 21.5959 52.9405 22.9449 51.5684 22.699C51.5684 22.699 50.1963 22.4532 49.9546 23.8021C49.9546 23.8021 48.5826 23.5563 48.3408 24.9053C49.7129 25.1511 48.0991 26.2542 48.0991 26.2542C48.0991 26.2542 46.7271 26.0084 46.4853 27.3573L47.8574 27.6032C46.4853 27.3573 46.2436 28.7063 44.8716 28.4605L44.6299 29.8094L44.3881 31.1584L41.4023 32.0157L39.7885 33.1188C39.7885 33.1188 39.7885 33.1188 38.1747 34.2219C38.1747 34.2219 37.933 35.5709 36.5609 35.325C36.5609 35.325 36.3192 36.674 34.9471 36.4281C34.9471 36.4281 34.9471 36.4281 34.7054 37.7771L34.4637 39.126L34.222 40.475L33.9803 41.824C30.7527 44.0302 27.2834 47.5854 25.4279 50.0375C25.4279 50.0375 25.6696 48.6885 27.0417 48.9344L28.6555 47.8312C28.6555 47.8312 28.6555 47.8312 28.4138 49.1802C28.1721 50.5292 26.5583 51.6323 26.0749 54.3302L25.8332 55.6792L25.5915 57.0281L25.3498 58.3771L25.5915 57.0281L25.8332 55.6792L26.0749 54.3302L26.3166 52.9813L26.5583 51.6323L26.8 50.2833C27.7668 44.8875 29.6223 42.4354 31.7195 38.6343L33.3333 37.5312C33.3333 37.5312 33.575 36.1823 34.9471 36.4281L35.1888 35.0792C36.8026 33.976 38.4164 32.8729 40.0302 31.7698C40.0302 31.7698 40.0302 31.7698 41.644 30.6667C43.4995 28.2146 46.7271 26.0084 49.9546 23.8021C48.5825 23.5563 48.3408 24.9053 46.9688 24.6594C46.9688 24.6594 46.9688 24.6594 45.355 25.7625C40.5136 29.0719 37.286 31.2781 35.4305 33.7302L35.6722 32.3812C32.2029 35.9364 28.7336 39.4916 26.3947 44.6416C26.153 45.9906 26.153 45.9906 24.5392 47.0937L24.2975 48.4427L24.0558 49.7916C21.9586 53.5927 20.3448 54.6958 20.1031 56.0447C19.8614 57.3937 19.8614 57.3937 19.6197 58.7427C19.378 60.0916 19.378 60.0916 19.1363 61.4406C18.8946 62.7896 18.8946 62.7896 18.6529 64.1385C18.4112 65.4875 18.4112 65.4875 18.1695 66.8365L17.9278 68.1854L17.6861 69.5344C17.4444 70.8833 17.4444 70.8834 17.2027 72.2323C16.9609 73.5813 16.9609 73.5813 16.7192 74.9302C16.7192 74.9302 16.7192 74.9302 16.4775 76.2792L16.2358 77.6282L15.9941 78.9771C16.2358 77.6282 16.2358 77.6282 16.4775 76.2792L16.7192 74.9302C16.9609 73.5813 17.4444 70.8833 17.6861 69.5344C18.4112 65.4875 20.2667 63.0354 22.3639 59.2344C24.4611 55.4333 25.1862 51.3864 28.6555 47.8312C22.6837 49.5458 20.5865 53.3468 18.2476 58.4968C15.4253 66.3448 14.2168 73.0896 14.1386 81.4292L13.8969 82.7782C13.0082 79.8344 12.3613 75.5417 13.0864 71.4948C13.8115 67.4479 14.5366 63.401 16.6338 59.5999C21.0699 50.6489 25.506 41.6978 31.0725 34.3416L29.4587 35.4447C29.4587 35.4447 29.4587 35.4447 29.217 36.7937C29.217 36.7937 29.217 36.7937 28.9753 38.1427C28.7336 39.4916 27.3615 39.2458 27.1198 40.5947L26.8781 41.9437C23.8922 42.801 23.4088 45.4989 21.795 46.602C21.5533 47.951 21.5533 47.951 19.9395 49.0541C19.6978 50.403 19.6978 50.403 18.0841 51.5062C11.5507 64.2583 9.13369 77.7479 11.3163 89.2771L11.0746 90.6261C10.8329 91.9751 10.5912 93.324 11.4799 96.2678C11.2382 97.6168 11.2382 97.6168 10.9965 98.9657L10.7548 100.315L10.5131 101.664C10.2714 103.013 11.4017 104.607 11.4017 104.607C11.16 105.956 12.5321 106.202 12.2904 107.551C12.5321 106.202 11.16 105.956 11.4017 104.607L11.6434 103.258L11.8851 101.91L12.1268 100.561L12.3686 99.2116L12.6103 97.8626C12.3686 99.2116 12.3686 99.2116 13.4989 100.806C13.2572 102.155 13.2572 102.155 14.3876 103.75L15.2763 106.694L13.4208 109.146L13.1791 110.495C13.1791 110.495 12.9374 111.844 14.3095 112.09C14.3095 112.09 14.0678 113.439 15.4399 113.685C15.4399 113.685 15.1982 115.034 16.5702 115.279C16.5702 115.279 16.3285 116.628 17.7006 116.874L18.831 118.469C17.2172 119.572 18.3476 121.167 19.478 122.762C20.3667 125.706 22.8691 127.546 25.1299 130.736L23.9995 129.141L21.497 127.3C21.7387 125.951 20.6084 124.357 19.2363 124.111L18.9946 125.46C22.6274 128.895 26.0186 133.68 29.6514 137.115L30.7818 138.71L31.9122 140.305C31.9122 140.305 31.9122 140.305 30.7818 138.71L31.9122 140.305L33.0426 141.9C34.4147 142.145 35.545 143.74 36.9171 143.986C40.7917 146.073 44.6662 148.159 48.5408 150.246C55.1595 152.824 63.3921 154.299 68.8804 155.282C70.2525 155.528 71.6246 155.774 73.2384 154.671C74.6105 154.917 74.6105 154.917 75.9826 155.163C77.3547 155.408 77.3546 155.408 78.7267 155.654L80.0988 155.9C80.0988 155.9 80.0988 155.9 81.4709 156.146C87.201 155.78 92.931 155.415 98.9028 153.7L100.275 153.946L101.647 154.192C103.019 154.438 103.019 154.438 104.633 153.335C110.605 151.62 112.218 150.517 115.204 149.66L116.818 148.557L118.432 147.454C118.432 147.454 118.432 147.454 119.804 147.699C119.804 147.699 119.804 147.699 121.418 146.596L123.032 145.493C124.404 145.739 126.017 144.636 127.631 143.533C127.631 143.533 129.003 143.779 129.245 142.43L130.859 141.327C134.328 137.771 137.556 135.565 139.653 131.764C139.653 131.764 139.411 133.113 138.039 132.867C138.039 132.867 137.797 134.216 136.425 133.97C136.425 133.97 136.184 135.319 134.811 135.073C134.811 135.073 134.57 136.422 133.198 136.177L134.811 135.073L136.425 133.97C136.425 133.97 136.667 132.621 138.039 132.867C138.039 132.867 138.281 131.518 139.653 131.764C141.75 127.963 143.606 125.511 145.219 124.408L145.461 123.059C147.558 119.258 149.655 115.457 151.994 110.307C152.236 108.958 152.478 107.609 154.092 106.506C154.333 105.157 154.575 103.808 154.817 102.459C156.43 101.356 156.672 100.007 156.672 100.007C155.058 101.11 155.058 101.11 154.817 102.459ZM108.791 27.383C108.791 27.383 110.163 27.6288 108.791 27.383C110.163 27.6288 110.163 27.6288 108.791 27.383ZM137.69 47.8761C139.062 48.1219 140.193 49.7167 139.951 51.0657L141.081 52.6605L142.212 54.2553C144.231 58.7939 146.25 63.3325 148.269 67.8711C148.269 67.8711 148.511 66.5221 147.138 66.2763L146.008 64.6815C145.361 60.3887 143.342 55.8501 141.081 52.6605L139.951 51.0657C138.82 49.4709 137.69 47.8761 137.69 47.8761C136.56 46.2813 135.429 44.6864 134.299 43.0916C135.429 44.6864 136.56 46.2813 137.69 47.8761ZM111.215 37.5632C109.843 37.3174 109.843 37.3174 111.215 37.5632V37.5632ZM38.4237 56.5429C36.8099 57.646 36.3265 60.3439 34.471 62.796C32.6155 65.2481 32.1321 67.946 31.4069 71.9929C31.1652 73.3418 30.6818 76.0398 30.4401 77.3887C31.1652 73.3418 31.6486 70.6439 32.3738 66.597C33.3406 61.2012 35.4378 57.4001 38.9071 53.8449C40.7626 51.3928 42.3764 50.2897 43.9902 49.1866L45.6039 48.0835L43.9902 49.1866C42.3764 50.2897 40.5209 52.7418 38.9071 53.8449C38.6654 55.1939 38.6654 55.1939 38.4237 56.5429ZM153.274 71.5524C153.032 72.9014 153.032 72.9014 153.032 72.9014C152.79 74.2503 152.79 74.2503 152.549 75.5993C152.79 74.2503 153.032 72.9014 153.274 71.5524C153.274 71.5524 153.032 72.9014 153.274 71.5524C152.385 68.6086 150.366 64.07 148.347 59.5314C147.7 55.2387 145.681 50.7001 142.048 47.2646C140.918 45.6698 140.029 42.7261 137.527 40.8854C137.527 40.8854 137.527 40.8854 138.657 42.4802C140.029 42.7261 139.787 44.075 141.159 44.3209C144.551 49.1053 146.811 52.2949 147.458 56.5877C149.477 61.1263 151.496 65.6648 153.274 71.5524ZM78.7685 28.965C80.1406 29.2108 80.1406 29.2108 78.7685 28.965C80.1406 29.2108 80.1406 29.2108 78.7685 28.965C80.1406 29.2108 80.1406 29.2108 80.1406 29.2108L81.5127 29.4567C81.5127 29.4567 81.5127 29.4567 83.1264 28.3535C85.8706 28.8452 87.2427 29.0911 89.9869 29.5828L91.359 29.8286C92.7311 30.0745 92.7311 30.0745 94.1031 30.3203C95.4752 30.5662 95.4752 30.5662 96.8473 30.812L98.2194 31.0579C100.964 31.5496 102.336 31.7954 104.838 33.6361C104.838 33.6361 105.969 35.2309 108.471 37.0716L107.099 36.8257L105.727 36.5799L104.355 36.334C106.857 38.1747 106.857 38.1747 106.616 39.5236C106.616 39.5236 106.374 40.8726 105.002 40.6267L103.63 40.3809L102.258 40.135L100.885 39.8892L99.5134 39.6434L100.885 39.8892C103.388 41.7299 103.388 41.7299 103.388 41.7299C105.89 43.5705 108.635 44.0622 109.765 45.657C112.026 48.8467 114.528 50.6873 115.417 53.6311C115.417 53.6311 115.175 54.9801 116.547 55.2259C116.547 55.2259 116.547 55.2259 117.678 56.8207C118.808 58.4155 119.938 60.0103 122.441 61.851C123.571 63.4458 124.46 66.3896 126.962 68.2302C126.962 68.2302 126.962 68.2302 128.093 69.8251C128.093 69.8251 127.851 71.174 129.223 71.4199C129.387 78.4105 130.034 82.7033 130.439 88.345C129.956 91.0429 129.472 93.7408 128.989 96.4388C128.505 99.1367 128.022 101.835 126.166 104.287C125.441 108.334 123.102 113.484 119.633 117.039C116.164 120.594 111.322 123.903 106.481 127.213C98.6538 131.379 91.3099 132.848 82.8357 132.722L83.0774 131.373C83.3191 130.024 83.3191 130.024 82.1888 128.429C82.1888 128.429 82.1888 128.429 80.8167 128.183C80.8167 128.183 80.8167 128.183 79.4446 127.937L78.0725 127.692L77.8308 129.041C77.8308 129.041 77.5891 130.389 76.217 130.144L74.8449 129.898C74.8449 129.898 76.217 130.144 75.9753 131.493C75.9753 131.493 75.9753 131.493 77.1057 133.087L76.864 134.436L75.4919 134.191L74.1198 133.945L72.7477 133.699C71.3756 133.453 71.3756 133.453 70.0035 133.207L68.6314 132.961L67.2593 132.715C67.2593 132.715 67.2593 132.715 65.8873 132.47L64.5152 132.224L63.1431 131.978L61.771 131.732L60.3989 131.486L59.2685 129.891C59.2685 129.891 59.5102 128.542 58.1381 128.297C58.1381 128.297 58.1381 128.297 57.8964 129.646C57.8964 129.646 57.8964 129.646 59.0268 131.24L60.1572 132.835C60.1572 132.835 60.1572 132.835 58.7851 132.589L57.6547 130.995C57.6547 130.995 56.2826 130.749 56.5243 129.4C56.5243 129.4 55.1523 129.154 55.394 127.805L56.5243 129.4L55.1523 129.154L53.7802 128.908L52.4081 128.662C52.4081 128.662 51.036 128.416 51.2777 127.067L50.1473 125.473C50.389 124.124 49.0169 123.878 49.2586 122.529C49.2586 122.529 49.5003 121.18 48.1283 120.934C48.1283 120.934 48.1283 120.934 46.9979 119.339C47.9647 113.943 48.2064 112.594 48.2064 112.594C47.9647 113.943 48.8534 116.887 49.9838 118.482C49.9838 118.482 48.6117 118.236 48.8534 116.887C47.4813 116.641 47.723 115.292 46.3509 115.046C45.2205 113.452 44.0901 111.857 42.9598 110.262L41.8294 108.667L40.9407 105.723L39.8103 104.129C40.052 102.78 38.6799 102.534 38.9216 101.185C38.9216 101.185 39.1633 99.8358 37.7912 99.59C38.033 98.241 36.9026 96.6462 36.9026 96.6462L37.1443 95.2972L37.386 93.9483L37.6277 92.5993L37.8694 91.2503L38.1111 89.9014L38.3528 88.5524L38.5945 87.2034C35.4451 81.07 35.2815 74.0794 37.6204 68.9294C38.1038 66.2314 38.5872 63.5335 40.4427 61.0814C40.6844 59.7325 40.6844 59.7325 40.9261 58.3835C41.1678 57.0345 41.1678 57.0345 42.7816 55.9314C43.0233 54.5825 43.0233 54.5825 44.6371 53.4793C44.8788 52.1304 44.8788 52.1304 46.4926 51.0273C46.4926 51.0273 46.4926 51.0273 46.2509 52.3762C46.0092 53.7252 44.3954 54.8283 44.1537 56.1773C43.912 57.5262 42.2982 58.6294 42.0565 59.9783C41.8148 61.3273 40.201 62.4304 39.9593 63.7794C39.7176 65.1283 39.4759 66.4773 37.8621 67.5804C37.6204 68.9294 37.3787 70.2783 37.137 71.6273L36.8953 72.9763C36.8953 72.9763 36.8953 72.9763 36.6536 74.3252L36.4119 75.6742L36.1702 77.0232C36.1702 77.0232 36.1702 77.0232 35.9285 78.3721L35.6868 79.7211C35.6868 79.7211 35.6868 79.7211 35.4451 81.07L35.2034 82.419L34.9617 83.768C34.9617 83.768 34.9617 83.768 34.7199 85.1169C33.7531 90.5128 34.4001 94.8055 36.1775 100.693C35.0471 99.0983 35.9357 102.042 37.0661 103.637C36.8244 104.986 37.9548 106.581 39.3269 106.826L40.4573 108.421L41.5877 110.016C41.1043 112.714 42.2346 114.309 43.365 115.904C41.9929 115.658 41.1043 112.714 39.9739 111.119C40.8626 114.063 43.1233 117.253 45.6258 119.093L44.2537 118.847L43.1233 117.253C41.9929 115.658 41.9929 115.658 40.8626 114.063L41.9929 115.658C41.9929 115.658 41.9929 115.658 41.7512 117.007C40.6208 115.412 40.8626 114.063 39.7322 112.468C38.6018 110.873 36.341 107.684 35.2106 106.089C35.4523 104.74 35.4523 104.74 34.322 103.145C34.322 103.145 34.322 103.145 34.5637 101.796C34.5637 101.796 34.5637 101.796 34.8054 100.447C33.4333 100.201 33.675 98.8524 32.3029 98.6066C33.1916 101.55 35.694 103.391 36.5827 106.335C36.5827 106.335 36.341 107.684 37.7131 107.93C37.7131 107.93 37.4714 109.279 38.8435 109.524L39.9739 111.119C37.7131 107.93 35.4523 104.74 34.8054 100.447C33.9167 97.5035 33.2697 93.2107 32.6227 88.918C32.8644 87.569 31.7341 85.9742 31.9758 84.6252L32.2175 83.2763L32.4592 81.9273C32.9426 79.2294 33.1843 77.8804 33.426 76.5315C34.1511 72.4846 34.6345 69.7866 36.7317 65.9856C37.6985 60.5897 39.554 58.1377 41.6512 54.3366C45.6039 48.0835 50.687 43.4252 57.1422 39.0127C57.1422 39.0127 58.756 37.9096 57.3839 37.6638C57.3839 37.6638 57.3839 37.6638 58.756 37.9096C58.756 37.9096 58.756 37.9096 60.3698 36.8065C60.3698 36.8065 61.7419 37.0523 61.9836 35.7034C61.9836 35.7034 63.3557 35.9492 63.5974 34.6003C63.5974 34.6003 64.9695 34.8461 65.2112 33.4971C65.2112 33.4971 65.2112 33.4971 63.8391 33.2513C61.7419 37.0523 58.756 37.9096 57.1422 39.0127C57.1422 39.0127 55.7701 38.7669 55.5284 40.1158C50.687 43.4252 45.6039 48.0835 41.893 52.9877C42.1347 51.6387 43.5067 51.8845 43.7485 50.5356C43.9902 49.1866 45.3622 49.4325 45.6039 48.0835L45.8457 46.7345C45.6039 48.0835 43.9902 49.1866 42.3764 50.2897C43.9902 49.1866 45.8457 46.7345 47.4594 45.6314L49.0732 44.5283L50.687 43.4252L49.0732 44.5283C49.0732 44.5283 49.0732 44.5283 49.3149 43.1793C50.9287 42.0762 52.7842 39.6241 54.398 38.521C56.0118 37.4179 56.0118 37.4179 57.6256 36.3148L59.2394 35.2117L60.8532 34.1086C60.8532 34.1086 60.8532 34.1086 59.4811 33.8627L57.8673 34.9658L56.2535 36.0689C56.2535 36.0689 56.2535 36.0689 54.8814 35.8231L53.5094 35.5773L51.8956 36.6804C52.7842 39.6241 52.5425 40.9731 51.1704 40.7273L49.5566 41.8304L47.9429 42.9335L46.3291 44.0366C46.0874 45.3856 46.0874 45.3856 45.8457 46.7345L44.4736 46.4887L46.0874 45.3856C46.0874 45.3856 46.0874 45.3856 46.3291 44.0366L46.5708 42.6876L48.1846 41.5845L49.7984 40.4814C49.7984 40.4814 49.7984 40.4814 50.0401 39.1324L51.6539 38.0293L53.2676 36.9262L54.8814 35.8231L56.4952 34.72C56.4952 34.72 56.4952 34.72 57.8673 34.9658L59.2394 35.2117L62.2253 34.3544L63.8391 33.2513L65.2112 33.4971L66.5833 33.743L68.197 32.6399L69.8108 31.5368L71.1829 31.7826C71.1829 31.7826 71.1829 31.7826 72.555 32.0285L74.1688 30.9253C74.1688 30.9253 75.5409 31.1712 75.7826 29.8222L77.1547 30.0681C78.5268 30.3139 78.5268 30.3139 78.7685 28.965ZM15.1055 76.0334C15.3472 74.6844 15.3472 74.6844 15.5889 73.3354C15.5889 73.3354 15.3472 74.6844 15.1055 76.0334L14.8637 77.3823L14.622 78.7313C14.8637 77.3823 14.8637 77.3823 15.1055 76.0334C14.8637 77.3823 14.8637 77.3823 14.8637 77.3823C14.8637 77.3823 14.8637 77.3823 15.1055 76.0334ZM77.3547 155.408C75.9826 155.163 75.9826 155.163 74.6105 154.917L73.2384 154.671C71.8663 154.425 71.8663 154.425 70.4942 154.179L69.1221 153.933C59.5175 152.212 51.5267 149.388 42.8889 142.272L40.1447 141.78C40.1447 141.78 38.7726 141.534 39.0143 140.185C41.5168 142.026 45.3914 144.112 48.1355 144.604L49.5076 144.85L50.8797 145.096L49.5076 144.85L48.1355 144.604C52.0101 146.69 54.5126 148.531 58.6288 149.269C61.373 149.76 62.7451 150.006 65.4893 150.498C66.8614 150.744 66.8614 150.744 68.2334 150.99C70.4942 154.179 74.6105 154.917 77.3547 155.408Z" fill="#005BE3"/>
</g>
<defs>
<clipPath id="clip0_158_1711">
<rect width="146.364" height="146.638" fill="white" transform="translate(25.8965) rotate(10.1584)"/>
</clipPath>
</defs>
</svg>
