<svg width="98" height="78" viewBox="0 0 98 78" fill="none" xmlns="http://www.w3.org/2000/svg">
<path d="M94.619 21.3277H84.9483V17.5174H91.7527C93.6198 17.5174 95.1331 16.0039 95.1331 14.137C95.1331 12.27 93.6198 10.7565 91.7527 10.7565H84.9483V6.9464H94.619C96.4861 6.9464 97.9994 5.43295 97.9994 3.56597C97.9994 1.699 96.4861 0.185547 94.619 0.185547H81.5679C79.7008 0.185547 78.1875 1.699 78.1875 3.56597V24.7079C78.1875 26.5749 79.7008 28.0884 81.5679 28.0884H94.619C96.4861 28.0884 97.9994 26.5749 97.9994 24.7079C97.9992 22.8412 96.4861 21.3277 94.619 21.3277Z" fill="white"/>
<path d="M97.9993 24.7068C97.9993 26.5742 96.487 28.0886 94.6196 28.0886H90.7056C92.5729 28.0886 94.0852 26.5742 94.0852 24.7068C94.0852 22.8394 92.5729 21.3271 90.7056 21.3271H94.6196C96.487 21.3271 97.9993 22.8396 97.9993 24.7068Z" fill="#F8F9FA"/>
<path d="M91.2201 14.1365C91.2201 12.2691 89.7057 10.7568 87.8384 10.7568H91.7524C93.6198 10.7568 95.1321 12.2691 95.1321 14.1365C95.1321 16.0039 93.6198 17.5181 91.7524 17.5181H87.8384C89.7057 17.5181 91.2201 16.0037 91.2201 14.1365Z" fill="#F8F9FA"/>
<path d="M94.0852 3.56521C94.0852 1.69785 92.5729 0.185547 90.7056 0.185547H94.6196C96.487 0.185547 97.9993 1.69785 97.9993 3.56521C97.9993 5.43257 96.487 6.94697 94.6196 6.94697H90.7056C92.5729 6.94678 94.0852 5.43257 94.0852 3.56521Z" fill="#F8F9FA"/>
<path d="M43.667 0C41.7999 0 40.2866 1.51345 40.2866 3.38042V24.7079C40.2866 26.5748 41.7999 28.0883 43.667 28.0883C45.5342 28.0883 47.0475 26.5748 47.0475 24.7079V3.38042C47.0475 1.51345 45.5342 0 43.667 0Z" fill="white"/>
<path d="M47.0477 3.37985V24.7071C47.0477 26.5745 45.5333 28.0889 43.668 28.0889C42.9365 28.0889 42.2622 27.8582 41.71 27.4637C42.5717 26.8524 43.1336 25.8448 43.1336 24.7071V3.37985C43.1336 2.24213 42.5717 1.23648 41.71 0.625133C42.262 0.230836 42.9365 0 43.668 0C45.5333 0 47.0477 1.51249 47.0477 3.37985Z" fill="#F8F9FA"/>
<path d="M72.3456 1.24165C71.1643 -0.204613 69.0339 -0.417649 67.5894 0.762562L59.9435 7.00949V3.38042C59.9435 1.51345 58.4302 0 56.563 0C54.6959 0 53.1826 1.51345 53.1826 3.38042V24.7079C53.1826 26.5748 54.6959 28.0883 56.563 28.0883C58.4302 28.0883 59.9435 26.5748 59.9435 24.7079V15.7401L60.3249 15.4283L66.8169 26.4261C67.4476 27.4945 68.5744 28.0885 69.731 28.0885C70.315 28.0885 70.907 27.9371 71.4462 27.6186C73.054 26.6696 73.5881 24.5968 72.6391 22.9892L65.6213 11.1006L71.8665 5.9981C73.3126 4.81674 73.527 2.68734 72.3456 1.24165Z" fill="white"/>
<path d="M72.6399 22.989C73.5883 24.5961 73.0539 26.6684 71.447 27.619C70.9678 27.9009 70.4473 28.0527 69.9267 28.0805C70.1219 27.2287 69.9996 26.2979 69.5246 25.4953L61.7161 12.1166C61.371 11.5309 61.5052 10.7836 62.0297 10.3537L70.3309 3.31631C71.1907 2.61442 71.6145 1.57528 71.5713 0.545898C71.8572 0.73118 72.1194 0.963929 72.3463 1.24204C73.5274 2.68735 73.3125 4.81694 71.8672 5.9981L65.6224 11.1012L72.6399 22.989Z" fill="#F8F9FA"/>
<path d="M39.5549 21.4033V57.7402H20.1463C18.0699 57.7402 16.031 57.1861 14.2406 56.1351L13.3435 55.6085C11.5393 54.5496 9.48456 53.9915 7.39249 53.9915H1.97187C0.88334 53.9917 0 53.1084 0 52.0198V23.3751C0 22.2847 0.88334 21.4033 1.97187 21.4033H10.8156C13.5525 21.4033 16.2381 20.5199 18.3717 18.8043C20.2883 17.2643 21.992 14.8981 21.992 11.3548V4.0452C21.992 2.92719 22.4435 1.91753 23.177 1.18597C23.9086 0.454418 24.9201 0.000976562 26.0362 0.000976562C30.0588 0.000976562 33.3202 3.26043 33.3202 7.28303V21.4033H39.5549Z" fill="#F69583"/>
<path d="M33.3197 21.4025V7.28301C33.3197 3.26003 30.0578 0 26.0367 0C25.1666 0 24.3615 0.274094 23.7023 0.741699C26.1173 1.92612 27.7808 4.41 27.7808 7.28301V19.8096C27.7808 20.718 27.3132 21.5747 26.5258 22.0276C25.1291 22.8307 24.1778 24.3275 24.2101 26.0322C24.2568 28.5002 26.2722 30.4864 28.7514 30.4864H27.7039C25.1574 30.4864 23.0121 32.5703 23.0604 35.1163C23.1071 37.5843 25.1224 39.5708 27.6017 39.5708H25.9791C23.4326 39.5708 21.2874 41.6546 21.3356 44.2007C21.3823 46.6687 23.3976 48.6551 25.8769 48.6551H23.679C21.1325 48.6551 18.9872 50.7389 19.0355 53.285C19.0822 55.753 21.0975 57.7394 23.5768 57.7394H35.5058V21.4025H33.3197Z" fill="#EA806F"/>
<path d="M10.8152 27.2783L10.5871 49.7559C10.5871 52.3777 11.9767 54.8061 14.2401 56.1343L13.345 55.6071C11.5397 54.5492 9.48514 53.9896 7.39211 53.9896H1.97187C0.882766 53.9896 0 53.1068 0 52.0177V23.3738C0 22.2847 0.882766 21.4019 1.97187 21.4019H10.8152C12.4137 21.4019 13.9929 21.101 15.4534 20.5088V20.5107C12.7394 21.5611 10.8152 24.1945 10.8152 27.2783Z" fill="#EA806F"/>
<path d="M44.6407 21.4023H33.4842C30.9377 21.4023 28.7924 23.4862 28.8406 26.0323C28.8873 28.5003 30.9027 30.4865 33.3819 30.4865H44.6407C46.7576 30.4865 48.4738 28.7703 48.4738 26.6534V25.2354C48.4739 23.1185 46.7578 21.4023 44.6407 21.4023Z" fill="#FDB0A0"/>
<path d="M48.4742 25.2354V26.6538C48.4742 28.7696 46.7569 30.4869 44.6411 30.4869H37.1001C39.2161 30.4869 40.9332 28.7696 40.9332 26.6538V25.2354C40.9332 23.1177 39.2159 21.4023 37.1001 21.4023H44.6411C46.7569 21.4023 48.4742 23.1177 48.4742 25.2354Z" fill="#F89F8E"/>
<path d="M43.4906 30.4863H32.3343C29.7878 30.4863 27.6425 32.5702 27.6907 35.1163C27.7374 37.5842 29.7528 39.5705 32.232 39.5705H43.4907C45.6077 39.5705 47.3239 37.8543 47.3239 35.7374V34.3194C47.3239 32.2025 45.6077 30.4863 43.4906 30.4863Z" fill="#FDB0A0"/>
<path d="M47.3239 34.3204V35.7387C47.3239 37.8547 45.6066 39.5718 43.4908 39.5718H31.8091C33.9251 39.5718 35.6422 37.8545 35.6422 35.7387V34.3204C35.6422 32.2025 33.9249 30.4873 31.8091 30.4873H43.4908C45.6068 30.4873 47.3239 32.2027 47.3239 34.3204Z" fill="#F89F8E"/>
<path d="M41.7657 39.5703H30.6092C28.0627 39.5703 25.9174 41.6542 25.9656 44.2002C26.0123 46.6682 28.0277 48.6545 30.5069 48.6545H41.7657C43.8826 48.6545 45.5988 46.9383 45.5988 44.8213V43.4034C45.5988 41.2865 43.8826 39.5703 41.7657 39.5703Z" fill="#FDB0A0"/>
<path d="M45.5993 43.4044V44.8208C45.5993 46.9387 43.882 48.6539 41.7662 48.6539H32.4507C34.5667 48.6539 36.2838 46.9385 36.2838 44.8208V43.4044C36.2838 41.2865 34.5665 39.5713 32.4507 39.5713H41.7662C43.8822 39.5711 45.5993 41.2865 45.5993 43.4044Z" fill="#F89F8E"/>
<path d="M40.424 48.6553H28.3094C25.7629 48.6553 23.6176 50.7391 23.6658 53.2852C23.7125 55.7532 25.7279 57.7394 28.2071 57.7394H39.4658C41.5828 57.7394 43.2989 56.0233 43.2989 53.9063V51.5302C43.2989 49.9425 42.0119 48.6553 40.424 48.6553Z" fill="#FDB0A0"/>
<path d="M43.2994 51.5292V53.9057C43.2994 56.0236 41.5821 57.7388 39.4663 57.7388H33.1084C35.2244 57.7388 36.9415 56.0234 36.9415 53.9057V51.5292C36.9415 49.9423 35.6535 48.6543 34.0666 48.6543H40.4245C42.0115 48.6543 43.2994 49.9423 43.2994 51.5292Z" fill="#F89F8E"/>
<path d="M33.3202 7.58789V13.0321C32.4704 13.667 31.4194 14.0436 30.2797 14.0436H28.2625C27.4442 14.0436 26.7837 13.3812 26.7837 12.5648C26.7837 11.7485 27.4442 11.086 28.2625 11.086H30.2797C31.455 11.086 32.4133 10.1298 32.4133 8.95243C32.4131 8.33916 32.7879 7.81088 33.3202 7.58789Z" fill="#C4715C"/>
<path d="M97.4216 59.8305L80.5666 76.6837C79.3263 77.9259 77.2007 77.0466 77.2007 75.2897V69.2795H19.2351C18.1465 69.2795 17.2632 68.3962 17.2632 67.3076V49.5631C17.2632 48.4746 18.1465 47.5913 19.2351 47.5913H77.2007V41.5811C77.2007 39.8242 79.3263 38.9449 80.5666 40.1871L97.4216 57.0402C98.1926 57.8114 98.1926 59.0595 97.4216 59.8305Z" fill="#27E19D"/>
<path d="M97.4216 59.8302L80.5666 76.6833C79.3263 77.9255 77.2007 77.0462 77.2007 75.2893V72.3847L89.7573 59.8302C90.5283 59.0592 90.5283 57.811 89.7573 57.04L77.2007 44.4855V41.5811C77.2007 39.8242 79.3263 38.9449 80.5666 40.1871L97.4216 57.0402C98.1926 57.811 98.1926 59.0592 97.4216 59.8302Z" fill="#1EC186"/>
<path d="M64.4822 47.5908C62.3763 52.3942 57.5789 55.7482 51.9987 55.7482C46.4184 55.7482 41.621 52.3942 39.5151 47.5908H64.4822Z" fill="#1EC186"/>
<path d="M51.9994 50.3797C59.5256 50.3797 65.6268 44.2785 65.6268 36.7524C65.6268 29.2262 59.5256 23.125 51.9994 23.125C44.4732 23.125 38.3721 29.2262 38.3721 36.7524C38.3721 44.2785 44.4732 50.3797 51.9994 50.3797Z" fill="#FCB44D"/>
<path d="M65.6265 36.752C65.6265 44.2792 59.5251 50.379 51.9995 50.379C47.6424 50.379 43.7629 48.3343 41.2676 45.1515C43.2398 46.6406 45.6954 47.5218 48.3571 47.5218C54.8657 47.5218 60.1439 42.2455 60.1439 35.735C60.1439 29.2265 54.8657 23.9482 48.3571 23.9482C47.9553 23.9482 47.5574 23.9681 47.1646 24.008C48.6664 23.4379 50.2968 23.125 51.9995 23.125C59.5251 23.1248 65.6265 29.2265 65.6265 36.752Z" fill="#FB9927"/>
<path d="M50.0641 45.1499C49.8784 45.1499 49.6966 45.1412 49.5197 45.1244C47.1036 44.8955 45.3237 43.244 44.9851 40.9173C44.4798 37.4436 46.8017 35.5311 48.9271 34.1643C47.7928 32.2341 47.8459 31.3282 47.8669 30.9676C47.9931 28.8026 49.6615 27.1699 51.7481 27.1699C53.8895 27.1699 55.6317 28.9121 55.6317 31.0536C55.6317 32.0209 55.2403 32.967 54.5001 33.7897C54.0991 34.2351 53.6254 34.6298 53.1178 34.9952C53.7475 35.7859 54.4706 36.6187 55.2736 37.4802C55.3584 37.2708 55.4395 37.0545 55.5172 36.8302C55.7846 36.0584 56.627 35.6494 57.3986 35.9168C58.1703 36.1842 58.5793 37.0266 58.312 37.7981C58.0673 38.5042 57.794 39.1506 57.4975 39.7411C58.2161 40.4365 58.9759 41.1424 59.7708 41.8523C60.3801 42.3963 60.4329 43.3311 59.8889 43.9404C59.3448 44.5496 58.4098 44.6022 57.8009 44.0585C57.1226 43.4528 56.4681 42.8492 55.8409 42.2508C54.0277 44.3406 51.8606 45.1499 50.0641 45.1499ZM50.6144 36.5973C48.7416 37.7916 47.6602 38.7594 47.9123 40.4914C48.0516 41.45 48.757 42.081 49.799 42.1798C51.0033 42.2935 52.4722 41.6705 53.7282 40.149C52.5374 38.9104 51.4889 37.7153 50.6144 36.5973ZM51.7481 30.1275C51.1773 30.1275 50.849 30.6365 50.8197 31.1395C50.8197 31.1429 50.8272 31.5443 51.4202 32.5735C51.7653 32.3233 52.0673 32.0711 52.3016 31.8109C52.5487 31.5365 52.6739 31.2815 52.6739 31.0536C52.6739 30.5429 52.2585 30.1275 51.7481 30.1275Z" fill="#EEF4F5"/>
<path d="M74.833 60.8118H71.5528V59.9149H73.7877C74.6044 59.9149 75.2665 59.2528 75.2665 58.4361C75.2665 57.6193 74.6044 56.9573 73.7877 56.9573H71.5528V56.0601H74.833C75.6497 56.0601 76.3118 55.3981 76.3118 54.5813C76.3118 53.7646 75.6497 53.1025 74.833 53.1025H70.074C69.2573 53.1025 68.5952 53.7646 68.5952 54.5813V62.2908C68.5952 63.1075 69.2573 63.7696 70.074 63.7696H74.833C75.6497 63.7696 76.3118 63.1075 76.3118 62.2908C76.3118 61.4739 75.6497 60.8118 74.833 60.8118Z" fill="#0D9E66"/>
<path d="M29.8452 56.0601H32.6769C33.4936 56.0601 34.1557 55.3981 34.1557 54.5813C34.1557 53.7646 33.4936 53.1025 32.6769 53.1025H29.8452C27.967 53.1025 26.439 54.6305 26.439 56.5088C26.439 58.3871 27.967 59.9151 29.8452 59.9151H30.7494C30.9967 59.9151 31.1981 60.1162 31.1981 60.3635C31.1981 60.6108 30.9969 60.812 30.7494 60.812H27.918C27.1012 60.812 26.4392 61.4741 26.4392 62.2908C26.4392 63.1075 27.1012 63.7696 27.918 63.7696H30.7494C32.6277 63.7696 34.1557 62.2416 34.1557 60.3633C34.1557 58.4851 32.6277 56.9571 30.7494 56.9571H29.8452C29.5979 56.9571 29.3968 56.7559 29.3968 56.5084C29.3966 56.2615 29.5979 56.0601 29.8452 56.0601Z" fill="#0D9E66"/>
<path d="M43.0266 53.1025C42.2099 53.1025 41.5478 53.7646 41.5478 54.5813V56.9573H39.7467V54.5813C39.7467 53.7646 39.0846 53.1025 38.2679 53.1025C37.4511 53.1025 36.7891 53.7646 36.7891 54.5813V62.2908C36.7891 63.1075 37.4511 63.7696 38.2679 63.7696C39.0846 63.7696 39.7467 63.1075 39.7467 62.2908V59.9151H41.5478V62.2908C41.5478 63.1075 42.2099 63.7696 43.0266 63.7696C43.8433 63.7696 44.5054 63.1075 44.5054 62.2908V54.5813C44.5054 53.7646 43.8433 53.1025 43.0266 53.1025Z" fill="#0D9E66"/>
<path d="M51.3755 53.1025C49.248 53.1025 47.5171 54.8334 47.5171 56.9609V62.291C47.5171 63.1077 48.1792 63.7698 48.9959 63.7698C49.8126 63.7698 50.4747 63.1077 50.4747 62.291V60.901H52.2758V62.291C52.2758 63.1077 52.9379 63.7698 53.7546 63.7698C54.5714 63.7698 55.2334 63.1077 55.2334 62.291V56.9609C55.2338 54.8334 53.5031 53.1025 51.3755 53.1025ZM52.2762 57.9432H50.4751V56.9609C50.4751 56.4642 50.8791 56.0603 51.3757 56.0603C51.8722 56.0603 52.2762 56.4644 52.2762 56.9609V57.9432Z" fill="#0D9E66"/>
<path d="M64.336 59.7262C65.2082 59.0482 65.7727 57.9922 65.7727 56.8045C65.7727 54.7634 64.1119 53.1025 62.0705 53.1025H59.535C58.7182 53.1025 58.0562 53.7646 58.0562 54.5813V62.2908C58.0562 63.1075 58.7182 63.7696 59.535 63.7696C60.3517 63.7696 61.0138 63.1075 61.0138 62.2908V60.5065H61.2888L63.0718 63.1234C63.3579 63.5437 63.8225 63.7698 64.2952 63.7698C64.582 63.7698 64.8717 63.6865 65.1265 63.5129C65.8016 63.053 65.976 62.1331 65.516 61.4582L64.336 59.7262ZM62.0707 57.5489H62.0669C62.0648 57.5489 62.0629 57.5489 62.0608 57.5489H61.0138V56.0603H62.0707C62.4811 56.0603 62.8151 56.3942 62.8151 56.8045C62.8151 57.2149 62.4813 57.5489 62.0707 57.5489Z" fill="#0D9E66"/>
</svg>
