<svg width="102" height="104" viewBox="0 0 102 104" fill="none" xmlns="http://www.w3.org/2000/svg">
<path d="M2.47449 51.1405H4.94903V48.6659C4.94903 48.0097 5.20973 47.3802 5.6738 46.9162C6.13787 46.4521 6.76727 46.1914 7.42356 46.1914C8.07985 46.1914 8.70926 46.4521 9.17332 46.9162C9.63739 47.3802 9.8981 48.0097 9.8981 48.6659V51.1405H12.3726C13.0289 51.1405 13.6583 51.4012 14.1224 51.8653C14.5865 52.3293 14.8472 52.9587 14.8472 53.615C14.8472 54.2713 14.5865 54.9007 14.1224 55.3648C13.6583 55.8288 13.0289 56.0895 12.3726 56.0895H9.8981V58.5641C9.8981 59.2204 9.63739 59.8498 9.17332 60.3138C8.70926 60.7779 8.07985 61.0386 7.42356 61.0386C6.76727 61.0386 6.13787 60.7779 5.6738 60.3138C5.20973 59.8498 4.94903 59.2204 4.94903 58.5641V56.0895H2.47449C1.8182 56.0895 1.1888 55.8288 0.72473 55.3648C0.260664 54.9007 -4.3869e-05 54.2713 -4.3869e-05 53.615C-4.3869e-05 52.9587 0.260664 52.3293 0.72473 51.8653C1.1888 51.4012 1.8182 51.1405 2.47449 51.1405Z" fill="url(#paint0_linear_187_520)"/>
<path d="M4.12391 4.94907H6.59844V2.47454C6.59844 1.81825 6.85915 1.18884 7.32321 0.724775C7.78728 0.260709 8.41669 0 9.07298 0C9.72926 0 10.3587 0.260709 10.8227 0.724775C11.2868 1.18884 11.5475 1.81825 11.5475 2.47454V4.94907H14.022C14.6783 4.94907 15.3077 5.20978 15.7718 5.67385C16.2359 6.13791 16.4966 6.76732 16.4966 7.42361C16.4966 8.07989 16.2359 8.7093 15.7718 9.17337C15.3077 9.63743 14.6783 9.89814 14.022 9.89814H11.5475V12.3727C11.5475 13.029 11.2868 13.6584 10.8227 14.1224C10.3587 14.5865 9.72926 14.8472 9.07298 14.8472C8.41669 14.8472 7.78728 14.5865 7.32321 14.1224C6.85915 13.6584 6.59844 13.029 6.59844 12.3727V9.89814H4.12391C3.46762 9.89814 2.83821 9.63743 2.37414 9.17337C1.91008 8.7093 1.64937 8.07989 1.64937 7.42361C1.64937 6.76732 1.91008 6.13791 2.37414 5.67385C2.83821 5.20978 3.46762 4.94907 4.12391 4.94907Z" fill="url(#paint1_linear_187_520)"/>
<path d="M56.9144 21.4461H59.389V18.9716C59.389 18.3153 59.6497 17.6859 60.1137 17.2218C60.5778 16.7578 61.2072 16.4971 61.8635 16.4971C62.5198 16.4971 63.1492 16.7578 63.6133 17.2218C64.0773 17.6859 64.338 18.3153 64.338 18.9716V21.4461H66.8126C67.4689 21.4461 68.0983 21.7068 68.5623 22.1709C69.0264 22.635 69.2871 23.2644 69.2871 23.9207C69.2871 24.577 69.0264 25.2064 68.5623 25.6704C68.0983 26.1345 67.4689 26.3952 66.8126 26.3952H64.338V28.8697C64.338 29.526 64.0773 30.1554 63.6133 30.6195C63.1492 31.0836 62.5198 31.3443 61.8635 31.3443C61.2072 31.3443 60.5778 31.0836 60.1137 30.6195C59.6497 30.1554 59.389 29.526 59.389 28.8697V26.3952H56.9144C56.2581 26.3952 55.6287 26.1345 55.1647 25.6704C54.7006 25.2064 54.4399 24.577 54.4399 23.9207C54.4399 23.2644 54.7006 22.635 55.1647 22.1709C55.6287 21.7068 56.2581 21.4461 56.9144 21.4461Z" fill="url(#paint2_linear_187_520)"/>
<path d="M34.6437 23.5085C29.4049 23.5085 25.158 19.2616 25.158 14.0228C25.158 8.78401 29.4049 4.53711 34.6437 4.53711C39.8825 4.53711 44.1294 8.78401 44.1294 14.0228C44.1294 19.2616 39.8825 23.5085 34.6437 23.5085Z" fill="url(#paint3_linear_187_520)"/>
<path d="M28.0444 23.9199H41.2419C43.2101 23.9221 45.0971 24.7049 46.4888 26.0967C47.8805 27.4884 48.6633 29.3753 48.6655 31.3435V46.1907C48.6655 46.847 48.4048 47.4764 47.9408 47.9405C47.4767 48.4046 46.8473 48.6653 46.191 48.6653H23.0953C22.439 48.6653 21.8096 48.4046 21.3456 47.9405C20.8815 47.4764 20.6208 46.847 20.6208 46.1907V31.3435C20.623 29.3753 21.4058 27.4884 22.7975 26.0967C24.1893 24.7049 26.0762 23.9221 28.0444 23.9199Z" fill="url(#paint4_linear_187_520)"/>
<path d="M26.3199 9.34536C27.4165 7.15189 29.7508 4.53713 34.6438 4.53713H47.8316C48.1592 4.53526 48.4742 4.66309 48.7079 4.89271C48.9415 5.12233 49.0748 5.43508 49.0786 5.76264C49.0862 11.5483 43.5204 12.2942 43.2841 12.3732C43.1577 12.4153 43.0254 12.4367 42.8923 12.4367L30.5196 12.3732L28.8699 20.1473C28.8701 20.3224 28.8145 20.493 28.7113 20.6345C28.608 20.7759 28.4624 20.8808 28.2956 20.934C28.1288 20.9872 27.9494 20.9859 27.7833 20.9303C27.6173 20.8748 27.4732 20.7678 27.372 20.6249C26.3409 19.1781 25.1581 16.8661 25.1581 14.0228C25.2115 12.3993 25.6075 10.8053 26.3199 9.34536Z" fill="url(#paint5_linear_187_520)"/>
<path d="M32.169 68.4624C32.169 67.1498 32.6904 65.891 33.6185 64.9628C34.5467 64.0347 35.8055 63.5133 37.118 63.5133H55.2646V52.1717C55.2646 49.0863 55.2646 42.9353 63.3588 42.1498C63.5876 42.1283 63.8183 42.1549 64.0362 42.2277C64.2541 42.3006 64.4544 42.4182 64.6243 42.5729C64.7941 42.7277 64.9297 42.9162 65.0224 43.1265C65.1152 43.3367 65.163 43.564 65.1628 43.7937V55.0042C65.1628 55.3094 65.2475 55.6087 65.4075 55.8686L70.1118 63.5133H69.9056L80.01 70.1121L81.6597 83.3096L80.01 96.5071C80.01 98.2572 79.3148 99.9356 78.0772 101.173C76.8397 102.411 75.1613 103.106 73.4112 103.106H40.4174C39.1048 103.106 37.846 102.584 36.9179 101.656C35.9898 100.728 35.4683 99.4694 35.4683 98.1568C35.4683 96.8442 35.9898 95.5854 36.9179 94.6573C37.846 93.7291 39.1048 93.2077 40.4174 93.2077H38.7677C37.4552 93.2077 36.1963 92.6863 35.2682 91.7582C34.3401 90.83 33.8187 89.5712 33.8187 88.2586C33.8187 86.9461 34.3401 85.6873 35.2682 84.7591C36.1963 83.831 37.4552 83.3096 38.7677 83.3096H37.118C35.8055 83.3096 34.5467 82.7882 33.6185 81.86C32.6904 80.9319 32.169 79.6731 32.169 78.3605C32.169 77.0479 32.6904 75.7891 33.6185 74.861C34.5467 73.9329 35.8055 73.4114 37.118 73.4114C35.8055 73.4114 34.5467 72.89 33.6185 71.9619C32.6904 71.0338 32.169 69.7749 32.169 68.4624Z" fill="url(#paint6_linear_187_520)"/>
<path d="M82.4846 63.5137H98.9815C100.348 63.5137 101.456 64.6216 101.456 65.9882V100.632C101.456 101.998 100.348 103.106 98.9815 103.106H82.4846C81.118 103.106 80.0101 101.998 80.0101 100.632V65.9882C80.0101 64.6216 81.118 63.5137 82.4846 63.5137Z" fill="url(#paint7_linear_187_520)"/>
<path d="M90.733 99.1874C89.3663 99.1874 88.2584 98.0795 88.2584 96.7128C88.2584 95.3462 89.3663 94.2383 90.733 94.2383C92.0996 94.2383 93.2075 95.3462 93.2075 96.7128C93.2075 98.0795 92.0996 99.1874 90.733 99.1874Z" fill="#BFE8E5"/>
<defs>
<linearGradient id="paint0_linear_187_520" x1="14.8472" y1="53.615" x2="-4.29153e-05" y2="53.615" gradientUnits="userSpaceOnUse">
<stop offset="0.011" stop-color="#FAD46A"/>
<stop offset="1" stop-color="#FCE6AA"/>
</linearGradient>
<linearGradient id="paint1_linear_187_520" x1="-6219.33" y1="593.888" x2="-7288.33" y2="593.888" gradientUnits="userSpaceOnUse">
<stop offset="0.011" stop-color="#FAD46A"/>
<stop offset="1" stop-color="#FCE6AA"/>
</linearGradient>
<linearGradient id="paint2_linear_187_520" x1="-2365.66" y1="1798.16" x2="-3434.65" y2="1798.16" gradientUnits="userSpaceOnUse">
<stop offset="0.011" stop-color="#FAD46A"/>
<stop offset="1" stop-color="#FCE6AA"/>
</linearGradient>
<linearGradient id="paint3_linear_187_520" x1="41.348" y1="20.7272" x2="27.9393" y2="7.31849" gradientUnits="userSpaceOnUse">
<stop offset="0.004" stop-color="#F1CCCD"/>
<stop offset="1" stop-color="#FAEEEE"/>
</linearGradient>
<linearGradient id="paint4_linear_187_520" x1="46.39" y1="49.4914" x2="22.8963" y2="25.9979" gradientUnits="userSpaceOnUse">
<stop offset="0.015" stop-color="#CACAD5"/>
<stop offset="1" stop-color="#DCDCE3"/>
</linearGradient>
<linearGradient id="paint5_linear_187_520" x1="41.4795" y1="16.207" x2="30.1365" y2="4.86377" gradientUnits="userSpaceOnUse">
<stop offset="0.011" stop-color="#606082"/>
<stop offset="1" stop-color="#83839E"/>
</linearGradient>
<linearGradient id="paint6_linear_187_520" x1="-5714.74" y1="29937.1" x2="-17384.5" y2="20463.4" gradientUnits="userSpaceOnUse">
<stop offset="0.004" stop-color="#F1CCCD"/>
<stop offset="1" stop-color="#FAEEEE"/>
</linearGradient>
<linearGradient id="paint7_linear_187_520" x1="105.268" y1="97.8448" x2="76.1983" y2="68.7752" gradientUnits="userSpaceOnUse">
<stop offset="0.011" stop-color="#60C6BE"/>
<stop offset="1" stop-color="#80D1CB"/>
</linearGradient>
</defs>
</svg>
